# xmcd
#
# Track frame offsets:
#	150
#	34255
#	48995
#	66300
#	89215
#	112697
#	129117
#	143797
#	160280
#	181772
#	200662
#	218645
#	234709
#	265327
#	278080
#	301807
#	320557
#	333892
#
# Disc length: 4747
#
# Revision: 2
# Processed by: cddbd v1.5.1PL0 Copyright (c) Steve Scherf et al.
# Submitted via: audiograbber 1.80
# Normalized: r1:DSETVAR1
#
DISCID=04128912
DTITLE=Various Artist - Funkology - Disc 1
DYEAR=1900
DGENRE=
TTITLE0=Parliament - P Funk (Wants To Get Funked Up)
TTITLE1=Maceo and The Macks - Cross The Tracks (We Better Go Back)
TTITLE2=Charles Wright and The Watts 103rd Street Rhythm Band - Express Yourself
TTITLE3=Kool and The Gang - Funky Stuff
TTITLE4=Zapp - More Bounce To The Ounce
TTITLE5=Commodores - Brick House
TTITLE6=The Fatback Band - (Are You Ready) Do The Bus Stop
TTITLE7=The Bar - Kays
TTITLE8=George Clinton - Atomic Dog
TTITLE9=Funkadelic - One Nation Under A Groove
TTITLE10=The Dazz Band - Let It All Blow
TTITLE11=Undisputed Truth - You+Me=Love
TTITLE12=Slave - Slide
TTITLE13=Ohio Players - Skin Tight
TTITLE14=James Brown - (Get Up I Feel Like A) Sex Machine
TTITLE15=Marvin Gaye - Got To Give It Up (Part 1)
TTITLE16=Sly and The Family Stone - If You Want Me To Stay
TTITLE17=Bootsy Collins - I'd Rather Be With You
EXTD=Disc 1 of 2
EXTT0=
EXTT1=
EXTT2=
EXTT3=
EXTT4=
EXTT5=
EXTT6=
EXTT7=
EXTT8=
EXTT9=
EXTT10=
EXTT11=
EXTT12=
EXTT13=
EXTT14=
EXTT15=
EXTT16=
EXTT17=
PLAYORDER=
